<svg xmlns="http://www.w3.org/2000/svg" version="1.1" xmlns:xlink="http://www.w3.org/1999/xlink" xmlns:svgjs="http://svgjs.com/svgjs" width="512" height="512" x="0" y="0" viewBox="0 0 682.667 682.667" style="enable-background:new 0 0 512 512" xml:space="preserve" class="">
    <g>
        <defs>
            <clipPath id="a" clipPathUnits="userSpaceOnUse">
                <path d="M0 512h512V0H0Z" fill="#000000" data-original="#000000" class="" />
            </clipPath>
        </defs>
        <g clip-path="url(#a)" transform="matrix(1.33333 0 0 -1.33333 0 682.667)">
            <path d="M0 0c-52.295.388-97.693-29.304-119.925-72.804-19.157-37.485-42.088-72.962-70.12-104.369-23.469-26.295-45.672-65.235-46.603-118.902-.03-1.161-.047-2.326-.047-3.494 0-72.139 58.48-130.62 130.619-130.62h.001c.138 0 .275.005.414.006.988.003 1.975.012 2.958.037 130.175 1.806 235.15 107.875 235.15 238.48v56.535C132.447-61.542 73.587-.546 0 0" style="fill-opacity:1;fill-rule:nonzero;stroke:none" transform="translate(246.695 471.092)" fill="#f0a65f" data-original="#f0a65f" class="" />
            <path d="M0 0v56.536c0 45.032-22.045 85.345-56.016 109.979l-.001.001c16.323-22.472 25.946-50.16 25.946-79.909V72.879c0-24.203-17.433-44.85-41.275-49.018-12.446-2.175-24.651-3.594-36.739-4.281-39.228-2.227-74.866-17.786-103.067-44.999a121.454 121.454 0 0 1-2.244-2.185c-22.828-22.828-35.4-53.18-35.4-85.464 0-18.908 5.38-36.044 12.106-50.078 9.997-20.861-4.833-45.195-27.965-45.262h-.566c-35.421 0-58.041 9.021-79.47 24.408 23.706-33.014 62.423-54.522 106.169-54.522C-108.55-237.889 0-130.442 0 0" style="fill-opacity:1;fill-rule:nonzero;stroke:none" transform="translate(379.142 279.426)" fill="#e28540" data-original="#e28540" class="" />
            <path d="M0 0c-28.342 28.766-69.344 37.342-105.234 25.729-30.929-10.007-62.821-16.858-95.276-18.701-27.173-1.543-60.558-10.682-90.369-39.477a100.659 100.659 0 0 1-1.934-1.882c-39.39-39.39-39.39-103.253 0-142.643l.229-.223c.541-.538 1.085-1.072 1.635-1.595 72.066-70.092 187.301-69.495 258.614 1.818l30.87 30.87C38.716-105.923 39.882-40.478 0 0" style="fill-opacity:1;fill-rule:nonzero;stroke:none" transform="translate(472.7 272.01)" fill="#f0a65f" data-original="#f0a65f" class="" />
            <path d="M0 0a103.694 103.694 0 0 1-13.79 11.745c28.715-40.488 24.214-97.267-12.022-133.503l-30.869-30.87c-67.217-67.216-173.447-71.597-245.776-13.187a101.608 101.608 0 0 1 9.644-11.159l.229-.223c.541-.538 1.085-1.072 1.635-1.595 72.066-70.092 187.3-69.495 258.614 1.818l30.87 30.87C38.716-105.923 39.882-40.478 0 0" style="fill-opacity:1;fill-rule:nonzero;stroke:none" transform="translate(472.7 272.01)" fill="#e28540" data-original="#e28540" class="" />
            <path d="M0 0c-11.147-16.517-23.3-32.337-36.602-47.243-23.47-26.3-45.67-65.24-46.6-118.9-.03-1.16-.05-2.33-.05-3.5 0-72.14 58.48-130.62 130.62-130.62.14 0 .28.01.41.01.99 0 1.98.01 2.96.04 30.88.43 60.34 6.72 87.32 17.82" style="stroke-width:15;stroke-linecap:round;stroke-linejoin:round;stroke-miterlimit:10;stroke-dasharray:none;stroke-opacity:1" transform="translate(93.252 341.163)" fill="none" stroke="#000000" stroke-width="15" stroke-linecap="round" stroke-linejoin="round" stroke-miterlimit="10" stroke-dasharray="none" stroke-opacity="" data-original="#000000" class="" />
            <path d="M0 0v35.19c0 73.59-58.86 134.59-132.45 135.13-52.29.39-97.69-29.3-119.92-72.8a585.913 585.913 0 0 0-14.839-27.262" style="stroke-width:15;stroke-linecap:round;stroke-linejoin:round;stroke-miterlimit:10;stroke-dasharray:none;stroke-opacity:1" transform="translate(379.14 300.77)" fill="none" stroke="#000000" stroke-width="15" stroke-linecap="round" stroke-linejoin="round" stroke-miterlimit="10" stroke-dasharray="none" stroke-opacity="" data-original="#000000" class="" />
            <path d="m0 0 5.946 5.946C46.127 46.127 47.293 111.572 7.411 152.05c-28.342 28.766-69.343 37.342-105.234 25.729-30.929-10.007-62.821-16.858-95.276-18.701-27.173-1.543-60.558-10.682-90.369-39.477a100.659 100.659 0 0 1-1.934-1.882c-39.39-39.39-39.39-103.253 0-142.643v0c.076-.076.153-.148.229-.223a98.201 98.201 0 0 1 1.636-1.595c72.065-70.093 187.3-69.495 258.613 1.818" style="stroke-width:15;stroke-linecap:round;stroke-linejoin:round;stroke-miterlimit:10;stroke-dasharray:none;stroke-opacity:1" transform="translate(465.29 119.96)" fill="none" stroke="#000000" stroke-width="15" stroke-linecap="round" stroke-linejoin="round" stroke-miterlimit="10" stroke-dasharray="none" stroke-opacity="" data-original="#000000" class="" />
            <path d="M0 0s17.673 1.262 35.004-4.948" style="stroke-width:15;stroke-linecap:round;stroke-linejoin:round;stroke-miterlimit:10;stroke-dasharray:none;stroke-opacity:1" transform="translate(157 437.096)" fill="none" stroke="#000000" stroke-width="15" stroke-linecap="round" stroke-linejoin="round" stroke-miterlimit="10" stroke-dasharray="none" stroke-opacity="" data-original="#000000" class="" />
            <path d="M0 0s-6.5 18.5-28 26" style="stroke-width:15;stroke-linecap:round;stroke-linejoin:round;stroke-miterlimit:10;stroke-dasharray:none;stroke-opacity:1" transform="translate(310 284.096)" fill="none" stroke="#000000" stroke-width="15" stroke-linecap="round" stroke-linejoin="round" stroke-miterlimit="10" stroke-dasharray="none" stroke-opacity="" data-original="#000000" class="" />
            <path d="M0 0s27-.333 40-19" style="stroke-width:15;stroke-linecap:round;stroke-linejoin:round;stroke-miterlimit:10;stroke-dasharray:none;stroke-opacity:1" transform="translate(162 331.096)" fill="none" stroke="#000000" stroke-width="15" stroke-linecap="round" stroke-linejoin="round" stroke-miterlimit="10" stroke-dasharray="none" stroke-opacity="" data-original="#000000" class="" />
            <path d="M0 0s24.667-5 30-27" style="stroke-width:15;stroke-linecap:round;stroke-linejoin:round;stroke-miterlimit:10;stroke-dasharray:none;stroke-opacity:1" transform="translate(275 409.096)" fill="none" stroke="#000000" stroke-width="15" stroke-linecap="round" stroke-linejoin="round" stroke-miterlimit="10" stroke-dasharray="none" stroke-opacity="" data-original="#000000" class="" />
            <path d="M0 0s32-4 39-30" style="stroke-width:15;stroke-linecap:round;stroke-linejoin:round;stroke-miterlimit:10;stroke-dasharray:none;stroke-opacity:1" transform="translate(72 254.096)" fill="none" stroke="#000000" stroke-width="15" stroke-linecap="round" stroke-linejoin="round" stroke-miterlimit="10" stroke-dasharray="none" stroke-opacity="" data-original="#000000" class="" />
            <path d="M0 0s27.75-11.25 31-37" style="stroke-width:15;stroke-linecap:round;stroke-linejoin:round;stroke-miterlimit:10;stroke-dasharray:none;stroke-opacity:1" transform="translate(380 301.096)" fill="none" stroke="#000000" stroke-width="15" stroke-linecap="round" stroke-linejoin="round" stroke-miterlimit="10" stroke-dasharray="none" stroke-opacity="" data-original="#000000" class="" />
            <path d="M0 0s27-12 29-36" style="stroke-width:15;stroke-linecap:round;stroke-linejoin:round;stroke-miterlimit:10;stroke-dasharray:none;stroke-opacity:1" transform="translate(310 246.096)" fill="none" stroke="#000000" stroke-width="15" stroke-linecap="round" stroke-linejoin="round" stroke-miterlimit="10" stroke-dasharray="none" stroke-opacity="" data-original="#000000" class="" />
            <path d="M0 0s16-8.667 18-26" style="stroke-width:15;stroke-linecap:round;stroke-linejoin:round;stroke-miterlimit:10;stroke-dasharray:none;stroke-opacity:1" transform="translate(399 214.096)" fill="none" stroke="#000000" stroke-width="15" stroke-linecap="round" stroke-linejoin="round" stroke-miterlimit="10" stroke-dasharray="none" stroke-opacity="" data-original="#000000" class="" />
            <path d="M0 0s23.112-4.583 24.112-24.583" style="stroke-width:15;stroke-linecap:round;stroke-linejoin:round;stroke-miterlimit:10;stroke-dasharray:none;stroke-opacity:1" transform="translate(179.888 237.68)" fill="none" stroke="#000000" stroke-width="15" stroke-linecap="round" stroke-linejoin="round" stroke-miterlimit="10" stroke-dasharray="none" stroke-opacity="" data-original="#000000" class="" />
            <path d="M0 0s15.833 19.667 8 46" style="stroke-width:15;stroke-linecap:round;stroke-linejoin:round;stroke-miterlimit:10;stroke-dasharray:none;stroke-opacity:1" transform="translate(318 42.096)" fill="none" stroke="#000000" stroke-width="15" stroke-linecap="round" stroke-linejoin="round" stroke-miterlimit="10" stroke-dasharray="none" stroke-opacity="" data-original="#000000" class="" />
        </g>
    </g>
</svg>
